<svg version="1.1" id="Layer_1" xmlns="http://www.w3.org/2000/svg" xmlns:xlink="http://www.w3.org/1999/xlink" x="0px" y="0px"
	 width="100%" viewBox="0 0 1989 584" enable-background="new 0 0 1989 584" xml:space="preserve">
<path fill="#FFFFFF" opacity="1.000000" stroke="none" 
	d="
M1388.000000,585.000000 
	C925.333313,585.000000 463.166656,585.000000 1.000000,585.000000 
	C1.000000,390.333344 1.000000,195.666672 1.000000,1.000000 
	C664.000000,1.000000 1327.000000,1.000000 1990.000000,1.000000 
	C1990.000000,195.666672 1990.000000,390.333344 1990.000000,585.000000 
	C1789.500000,585.000000 1589.000000,585.000000 1388.000000,585.000000 
M1181.946167,324.485779 
	C1171.575317,317.073029 1161.204590,309.660278 1150.968872,302.344086 
	C1163.501831,296.399963 1175.286255,290.810883 1187.634399,284.954407 
	C1195.118042,287.636139 1203.517822,289.267487 1212.944580,288.252472 
	C1237.449463,285.613861 1252.710083,267.998810 1254.797119,245.703247 
	C1256.878540,223.468277 1245.121094,204.927094 1223.333008,197.019730 
	C1207.978760,191.447327 1192.284790,191.277832 1176.216553,193.864334 
	C1152.178101,197.733795 1131.323364,207.353973 1114.943848,225.631851 
	C1105.126465,236.587158 1098.327637,249.268646 1096.081177,263.926086 
	C1094.643311,273.306885 1094.093750,282.823822 1093.117065,292.567169 
	C1081.369141,288.385834 1072.414307,280.433624 1067.168579,268.889709 
	C1062.184448,257.921478 1060.992432,246.329086 1062.873657,234.204910 
	C1065.560303,216.889847 1072.195923,201.939606 1085.893921,190.058624 
	C1084.433350,187.885818 1084.162964,182.882172 1079.520630,186.236786 
	C1076.112305,188.699646 1073.317993,192.215866 1070.789673,195.658859 
	C1057.948120,213.146057 1053.283081,232.685638 1055.922974,254.238388 
	C1058.703003,276.935211 1071.024414,291.808807 1092.029297,299.850037 
	C1094.410034,300.761414 1095.351562,301.734711 1096.339478,304.239868 
	C1098.902344,310.738556 1101.849365,317.254150 1105.738037,323.024994 
	C1112.951904,333.730011 1123.513794,340.924316 1134.068359,348.081787 
	C1146.779907,356.702087 1160.339722,364.177094 1170.660767,376.049133 
	C1180.468018,387.330048 1184.668701,399.971802 1183.116211,414.928101 
	C1181.462891,430.855835 1172.757080,441.633575 1159.306641,448.796326 
	C1144.069580,456.910492 1127.391602,458.340942 1110.381470,458.076721 
	C1092.777222,457.803223 1077.444946,452.152191 1065.187988,439.535370 
	C1054.914185,428.959900 1049.821655,416.421448 1051.841553,401.116547 
	C1053.786255,386.380066 1060.889771,375.194519 1072.737061,366.883453 
	C1082.284180,360.185974 1093.218140,358.937347 1104.604248,359.960480 
	C1112.015137,360.626434 1118.802368,362.815887 1124.292114,367.865448 
	C1137.524658,380.036652 1135.128418,401.912262 1119.603027,412.113373 
	C1110.712158,417.955139 1096.465698,415.745392 1090.630005,406.959412 
	C1087.571777,402.354980 1085.875366,396.846069 1083.397461,391.377899 
	C1082.322510,391.377899 1080.266357,391.377899 1077.650391,391.377899 
	C1078.156616,394.731628 1078.413452,397.667908 1079.059814,400.515747 
	C1083.429688,419.768890 1105.658325,427.278351 1120.767456,420.102997 
	C1130.662964,415.403564 1135.754272,407.183197 1138.437256,397.091888 
	C1143.637939,377.530884 1134.743652,360.711121 1115.283569,355.209747 
	C1107.983643,353.146118 1099.904419,352.758667 1092.268921,353.186005 
	C1075.885864,354.103027 1062.947021,361.921722 1053.816162,375.604736 
	C1046.070801,387.211578 1043.012329,399.909149 1044.907227,413.927490 
	C1046.366089,424.720917 1050.422729,434.154846 1057.682129,442.132050 
	C1073.420532,459.426575 1094.326538,464.841553 1116.426392,465.729553 
	C1128.842896,466.228424 1141.554932,465.009003 1153.804688,462.766327 
	C1174.715210,458.938019 1193.339111,450.170990 1207.339478,433.238556 
	C1217.310547,421.179260 1222.734741,407.374664 1223.949585,391.936768 
	C1225.439697,372.998718 1218.685547,356.940399 1205.227905,343.922516 
	C1198.155029,337.080872 1190.089478,331.265442 1181.946167,324.485779 
M188.980698,357.299561 
	C189.983765,351.230560 190.986847,345.161591 192.005234,338.999908 
	C212.438232,338.999908 232.087555,339.012268 251.736832,338.991882 
	C257.136993,338.986267 257.345459,338.685944 256.247772,332.803284 
	C235.308319,332.803284 214.261215,332.803284 193.148285,332.803284 
	C193.873886,327.728271 194.438812,323.187134 195.183090,318.675537 
	C198.087158,301.071960 201.239426,283.506927 203.929321,265.871124 
	C206.228806,250.794846 207.939880,235.629150 210.181381,220.543137 
	C210.379364,219.210724 212.584305,217.161713 213.848007,217.168381 
	C221.617752,217.209396 229.564377,216.829468 237.115585,218.308243 
	C252.920303,221.403351 268.642914,223.485855 284.700409,221.001724 
	C296.300781,219.207138 306.936005,214.964233 315.477783,206.864594 
	C325.291138,197.559158 329.298920,185.880585 329.129730,172.190628 
	C328.751831,141.611420 303.398590,122.163574 274.333160,126.534988 
	C264.513550,128.011856 256.288818,129.083282 248.290909,122.751625 
	C247.986176,122.510368 247.473251,122.532082 246.953262,122.406029 
	C245.899246,124.162521 244.928055,125.781021 243.826889,127.616089 
	C247.959244,129.998032 251.783234,132.202225 255.725525,134.474609 
	C245.512192,145.038254 241.115906,157.863647 242.098480,172.294098 
	C242.996368,185.481049 248.692001,197.948364 263.341278,200.570419 
	C275.352051,202.720215 285.598572,198.891327 288.846497,186.982407 
	C291.502991,177.242050 290.052002,167.551102 285.222168,158.823700 
	C280.576477,150.429031 274.953552,142.575165 269.492706,134.067154 
	C273.013000,133.428391 276.965759,132.020767 280.880585,132.119324 
	C298.597412,132.565323 313.027954,140.828812 319.715302,158.748230 
	C325.440887,174.090469 322.805908,188.493011 311.028748,200.395096 
	C296.205475,215.375580 277.396576,216.438507 258.052460,214.455582 
	C248.128662,213.438324 238.324173,210.478592 228.419159,210.226166 
	C210.337463,209.765350 192.201706,210.264511 174.126022,211.139008 
	C162.175079,211.717209 150.251129,213.373413 138.382874,215.032013 
	C113.343880,218.531250 89.380669,225.443741 67.620461,238.771103 
	C55.365810,246.276642 45.086926,255.740936 38.111675,268.551422 
	C31.525427,280.647430 29.165672,293.542847 29.988436,307.170258 
	C30.791786,320.476135 36.616684,331.000488 47.171810,339.062469 
	C57.418694,346.889008 69.433075,349.964020 81.800705,351.899872 
	C87.055870,352.722443 92.450790,352.652191 97.685020,352.981537 
	C97.685020,349.907135 97.685020,347.644928 97.685020,346.396210 
	C87.388817,344.535858 77.406242,343.419495 67.825264,340.821899 
	C56.606361,337.780182 46.911846,331.717651 41.497124,320.849152 
	C37.474300,312.774506 36.619987,304.274261 37.755699,295.055328 
	C39.595181,280.123688 45.865639,267.642120 56.281654,257.404266 
	C71.783287,242.167755 91.200317,233.646957 111.862617,228.138428 
	C124.478081,224.775177 137.398209,222.477951 150.265747,220.172073 
	C155.981903,219.147736 161.906143,219.284515 168.197800,218.863342 
	C166.370773,228.610703 164.617249,237.419693 163.080460,246.266342 
	C158.346191,273.519165 153.577713,300.767303 149.136383,328.068298 
	C148.463730,332.203186 146.911331,333.343811 143.085068,333.057465 
	C139.498810,332.789032 135.876663,333.000000 132.240936,333.000000 
	C132.240936,335.276642 132.240936,336.881683 132.240936,339.024567 
	C137.204880,339.024567 141.958496,339.024567 146.757050,339.024567 
	C146.850922,340.209564 147.038071,340.884308 146.934372,341.510986 
	C144.636429,355.399506 142.589584,369.337830 139.901169,383.151123 
	C137.313019,396.449280 134.329575,409.686890 130.992767,422.817139 
	C128.856918,431.221619 123.285217,436.711731 114.410797,438.234222 
	C109.758911,439.032318 105.094078,439.754974 100.352844,440.525055 
	C100.352844,442.600494 100.352844,444.647095 100.352844,446.921783 
	C111.564178,447.394684 121.940544,445.132202 131.818817,440.907654 
	C158.557907,429.472412 176.386703,409.981873 183.948608,381.675873 
	C186.011993,373.952057 187.269714,366.012970 188.980698,357.299561 
M578.153076,393.985992 
	C564.501953,395.557648 556.926208,384.303528 558.103943,373.665100 
	C559.092712,364.733459 560.592407,355.812805 562.571411,347.046509 
	C566.001587,331.851715 571.251648,317.011810 570.044922,301.044495 
	C569.509521,293.960114 567.189697,287.626648 561.572815,283.378754 
	C549.321594,274.113495 526.847717,276.328583 516.753235,287.928284 
	C511.022858,294.513092 511.485840,294.333496 518.120117,297.863647 
	C522.970215,292.367432 527.460999,286.314911 536.556458,285.124481 
	C534.774475,294.750031 533.370850,304.100433 531.269348,313.291229 
	C527.606079,329.311951 523.144714,345.187683 524.015869,361.862122 
	C524.588013,372.813965 528.526794,382.651917 536.631775,389.886749 
	C550.018188,401.836060 565.999878,404.230713 583.244995,400.406128 
	C593.652222,398.098022 602.377380,393.037018 609.471985,385.022919 
	C622.414001,399.314972 638.037048,403.839996 656.581848,401.154694 
	C677.651001,398.103912 692.104370,386.308929 701.792603,368.315857 
	C713.413635,346.733337 716.520630,323.494354 711.831299,299.520660 
	C709.219055,286.165894 701.896423,277.358612 685.864929,277.968140 
	C677.423645,278.289062 668.506592,285.385620 666.058105,294.105255 
	C663.519714,303.145050 666.905273,314.374939 673.768188,318.912933 
	C683.718689,325.492523 693.840393,325.683441 705.479126,316.860077 
	C705.297302,320.525360 705.050110,323.455933 705.023621,326.388519 
	C704.895203,340.612335 700.334351,353.579407 693.038879,365.484406 
	C684.857788,378.834808 674.450867,389.689117 658.248047,393.432129 
	C645.834290,396.299866 636.280029,388.988586 635.933167,376.242920 
	C635.609924,364.366699 638.814392,353.174500 641.557556,341.847137 
	C644.722412,328.778290 648.727295,315.870056 648.062622,302.125000 
	C647.627441,293.125427 641.592285,282.775909 633.754089,280.109772 
	C619.201782,275.159821 599.731323,277.272461 590.141235,293.908875 
	C591.879456,295.225739 593.656555,296.572052 595.629944,298.067078 
	C600.593811,292.144836 605.473572,286.666016 612.944153,285.103363 
	C612.944153,288.436462 613.459961,291.646454 612.854797,294.628967 
	C610.254639,307.443909 607.264954,320.179108 604.531799,332.967865 
	C601.651428,346.445709 600.322754,359.942230 603.868408,373.579681 
	C604.289185,375.198059 603.407227,377.720917 602.255188,379.088074 
	C596.085999,386.409149 588.852966,392.253815 578.153076,393.985992 
M1905.003174,357.651184 
	C1904.983521,358.650421 1904.981934,359.650391 1904.941162,360.648773 
	C1904.635620,368.127655 1903.246460,375.755737 1904.260010,383.050354 
	C1905.838989,394.413727 1913.894043,400.094299 1924.986694,401.487335 
	C1937.947021,403.114899 1949.879395,401.473999 1958.794312,390.495422 
	C1953.859619,385.163147 1953.966797,385.290344 1948.438721,389.946381 
	C1946.223022,391.812531 1943.420410,392.981628 1940.390259,394.758026 
	C1939.832642,390.808716 1938.714355,387.927795 1939.178711,385.329651 
	C1941.536865,372.134460 1944.467407,359.042267 1946.883911,345.856506 
	C1949.184692,333.302094 1952.679321,320.843475 1950.045654,307.816437 
	C1948.127808,298.329102 1944.414429,290.268463 1936.139648,284.436981 
	C1925.857056,277.190582 1914.275391,276.948578 1902.849365,278.413239 
	C1893.864380,279.565002 1885.848877,284.156738 1880.399292,292.060486 
	C1877.893799,295.694183 1875.353882,299.304047 1872.525146,303.361664 
	C1871.231812,293.724762 1868.937866,287.750153 1864.839478,284.475250 
	C1854.094971,275.889740 1833.754761,275.213959 1823.344849,284.159088 
	C1817.795410,288.927612 1817.781006,288.910828 1823.013428,293.260895 
	C1827.767944,290.217773 1832.362793,287.276855 1836.957520,284.335938 
	C1837.411499,284.714691 1837.865356,285.093414 1838.319214,285.472137 
	C1837.548096,289.778900 1836.768555,294.084137 1836.007324,298.392609 
	C1833.131226,314.670197 1829.988892,330.907135 1827.485229,347.241882 
	C1825.844116,357.948273 1824.703735,368.775421 1824.163696,379.589691 
	C1823.850220,385.866669 1826.965332,391.445282 1831.995483,395.384369 
	C1843.393066,404.309998 1861.401123,404.312225 1872.915283,395.422913 
	C1874.616699,394.109344 1876.663208,391.840179 1876.606323,390.075928 
	C1876.556885,388.541168 1873.758789,387.095001 1872.482056,385.897461 
	C1868.046021,389.223267 1865.339600,393.950439 1859.238159,392.729126 
	C1859.238159,389.184601 1858.770020,385.751770 1859.321533,382.491425 
	C1861.367432,370.398102 1863.846558,358.378845 1865.981812,346.299713 
	C1869.046143,328.965179 1874.747314,312.603149 1885.460449,298.559875 
	C1888.756714,294.239258 1894.076294,290.834198 1899.173828,288.665894 
	C1906.477783,285.559113 1913.466797,290.209167 1913.888672,297.901642 
	C1914.186890,303.339569 1913.821167,308.920593 1912.916016,314.297028 
	C1910.526245,328.492004 1907.681396,342.610382 1905.003174,357.651184 
M1479.388062,391.079437 
	C1476.859497,392.214478 1474.330933,393.349487 1470.396240,395.115631 
	C1477.698486,355.022400 1484.679199,316.694397 1491.752686,277.856476 
	C1487.979492,278.277771 1484.754028,278.796417 1481.509888,278.968903 
	C1473.414429,279.399353 1465.304321,279.570221 1457.213623,280.066132 
	C1454.498169,280.232635 1451.902100,280.620361 1451.794800,284.727539 
	C1451.701172,288.307007 1450.336304,291.853210 1449.532593,295.417084 
	C1449.216553,295.330627 1448.987061,295.338654 1448.921143,295.238708 
	C1448.292358,294.285095 1447.613403,293.353058 1447.094360,292.340271 
	C1442.745850,283.855499 1435.239136,279.108246 1426.357910,278.222015 
	C1400.736694,275.665375 1378.859131,285.404480 1366.169556,309.782715 
	C1358.325317,324.852509 1356.173462,341.370117 1357.060425,358.196808 
	C1357.803345,372.292145 1361.745483,385.286591 1374.207520,393.560791 
	C1387.525269,402.403137 1401.900635,405.257355 1417.150146,398.387695 
	C1425.548462,394.604370 1431.204712,387.805908 1436.145752,380.506683 
	C1437.450317,383.578094 1438.464233,386.610321 1439.961426,389.381531 
	C1447.704834,403.714844 1473.728149,406.514404 1487.046631,394.449890 
	C1491.477783,390.435883 1490.988159,388.761536 1484.166870,385.955536 
	C1482.849365,387.394531 1481.391235,388.987244 1479.388062,391.079437 
M358.013519,307.645386 
	C361.696198,298.016479 365.158997,288.296356 369.109467,278.778595 
	C376.277527,261.508881 382.506439,244.094315 381.006042,224.925674 
	C379.116821,200.789520 361.576843,192.455902 340.989288,200.647018 
	C327.546021,205.995651 322.935486,218.648727 319.133270,231.124268 
	C316.235626,240.631683 314.382721,250.478973 312.432587,260.248444 
	C309.774536,273.564545 307.416290,286.941559 305.021454,300.308929 
	C302.481598,314.485504 299.854706,328.650970 297.631042,342.878326 
	C295.809204,354.534729 294.156372,366.243256 293.142609,377.990265 
	C292.567017,384.660034 295.656281,390.664520 300.672333,395.020996 
	C310.660156,403.695557 328.462402,404.469696 339.445831,397.011597 
	C350.123291,389.761261 356.355286,379.325928 360.332916,367.315247 
	C362.487579,360.809143 362.540100,360.826538 356.088379,358.531097 
	C349.060089,372.539124 345.451721,389.302277 327.302338,395.001587 
	C337.877625,331.083649 348.364258,267.701508 358.900726,204.018295 
	C365.154327,206.635300 369.785614,210.872665 372.018280,217.585342 
	C375.362976,227.641342 375.171387,238.035294 372.341858,247.830902 
	C368.588898,260.823212 363.380829,273.417511 358.407318,286.028748 
	C353.243561,299.122345 348.323029,312.206207 348.523254,326.658142 
	C350.584991,326.658142 352.643799,326.658142 354.220032,326.658142 
	C355.531128,320.316193 356.754791,314.397095 358.013519,307.645386 
M379.000244,338.595276 
	C378.666870,346.361511 377.670074,354.168274 378.141388,361.885345 
	C379.058014,376.892212 385.168640,389.139160 399.374969,396.086731 
	C414.439728,403.454102 430.220581,403.327850 446.117676,399.943024 
	C467.216064,395.450775 482.786896,383.632568 492.015228,363.910309 
	C498.578827,349.882935 500.296631,335.010651 500.058533,319.682892 
	C499.672333,294.823547 482.302643,279.655090 459.544769,278.223511 
	C449.262970,277.576721 438.654144,278.372406 428.507050,280.227600 
	C413.586639,282.955475 401.037262,290.349121 391.908478,303.070801 
	C384.415955,313.512268 381.152222,325.353943 379.000244,338.595276 
M1682.002563,339.750946 
	C1682.000854,348.454865 1681.326660,357.222595 1682.144775,365.848755 
	C1683.616455,381.364471 1692.160767,392.461395 1706.658936,397.987640 
	C1720.987427,403.449280 1735.766968,403.170959 1750.389893,399.872284 
	C1771.899292,395.020142 1787.448608,382.601715 1796.112793,361.939758 
	C1802.192749,347.440399 1804.040771,332.452667 1803.089966,316.830231 
	C1801.962646,298.306641 1790.593018,284.269226 1772.444458,279.960114 
	C1758.696899,276.695953 1744.922241,277.112305 1731.272583,280.116974 
	C1711.743896,284.415741 1697.098267,295.421448 1689.195801,313.972229 
	C1685.838867,321.852753 1684.352173,330.530060 1682.002563,339.750946 
M1553.020874,339.674561 
	C1553.338989,338.571716 1553.754395,337.486664 1553.960083,336.363251 
	C1556.288086,323.654480 1558.414551,310.906036 1560.939575,298.236908 
	C1563.186646,286.961975 1563.377441,287.000000 1574.929565,287.000000 
	C1583.867432,287.000000 1592.805420,287.000000 1601.753906,287.000000 
	C1601.753906,284.715118 1601.753906,283.109924 1601.753906,280.989929 
	C1589.107056,280.989929 1576.684692,280.989929 1563.821533,280.989929 
	C1567.050049,264.458527 1570.165405,248.507065 1573.333984,232.282257 
	C1559.733521,233.368393 1547.005737,234.384827 1534.257690,235.402878 
	C1531.384277,250.633728 1528.541748,265.701111 1525.643066,281.065979 
	C1520.353394,281.065979 1515.399536,281.065979 1510.361084,281.065979 
	C1510.079468,283.166718 1509.844849,284.916534 1509.537231,287.210358 
	C1514.330322,287.210358 1519.067993,287.210358 1524.267334,287.210358 
	C1521.641113,302.477753 1518.794067,317.093658 1516.691284,331.815857 
	C1514.718506,345.626831 1513.044189,359.521118 1512.215576,373.436920 
	C1511.827271,379.959503 1514.522827,386.104065 1519.497437,391.162872 
	C1525.588501,397.356873 1532.878418,400.485992 1541.230591,401.610382 
	C1554.948120,403.457031 1567.298462,399.900146 1577.031128,390.197510 
	C1586.035522,381.220795 1590.714844,369.505829 1593.954956,357.326141 
	C1595.528320,351.411804 1595.378296,351.371887 1589.761963,350.392212 
	C1585.095703,360.071533 1581.326050,369.951874 1575.748779,378.676636 
	C1572.479004,383.791687 1566.787720,387.867157 1561.361572,390.967987 
	C1554.418579,394.935608 1546.816895,389.744507 1547.053223,381.910553 
	C1547.166870,378.142334 1547.665771,374.368927 1548.231812,370.634430 
	C1549.752686,360.599182 1551.403687,350.583649 1553.020874,339.674561 
M1301.216553,401.997772 
	C1327.608398,399.754852 1340.178467,377.925507 1345.504517,352.233307 
	C1343.601685,351.505157 1341.655273,350.760315 1340.225708,350.213257 
	C1336.202515,359.028992 1332.681885,367.825500 1328.245483,376.132996 
	C1324.489624,383.166229 1319.192139,389.074493 1311.032593,391.481598 
	C1303.338257,393.751526 1297.532837,389.793152 1298.130493,381.753418 
	C1298.956909,370.635010 1300.280151,359.514771 1302.129028,348.519470 
	C1305.568115,328.067200 1309.540771,307.704620 1313.348999,286.990479 
	C1326.239258,286.990479 1338.854980,286.990479 1351.492188,286.990479 
	C1351.983887,284.929779 1352.391968,283.220123 1352.927368,280.975983 
	C1340.262695,280.975983 1327.841797,280.975983 1314.412598,280.975983 
	C1317.672241,264.389954 1320.801880,248.465530 1323.895874,232.722702 
	C1323.438232,232.378616 1323.297607,232.182388 1323.172974,232.191986 
	C1311.035522,233.128738 1298.893311,234.015549 1286.774902,235.155334 
	C1285.791260,235.247864 1284.385864,236.967606 1284.166138,238.119934 
	C1281.990356,249.532837 1280.362183,261.059326 1277.892212,272.404083 
	C1275.831177,281.869965 1279.140137,280.923553 1268.619751,280.998718 
	C1267.286743,281.008240 1265.947998,281.081329 1264.621948,280.985870 
	C1259.938721,280.648804 1259.425659,283.052887 1260.620728,287.311523 
	C1265.455078,287.311523 1270.147583,287.311523 1274.834717,287.311523 
	C1272.788818,299.660095 1270.984985,311.464294 1268.850952,323.208496 
	C1265.821899,339.879303 1262.464722,356.483917 1262.960815,373.575592 
	C1263.171631,380.841888 1265.539673,387.139984 1270.720093,392.155731 
	C1278.950928,400.124786 1289.268799,402.214783 1301.216553,401.997772 
M823.105103,369.572784 
	C815.584900,382.686523 804.803467,391.248810 789.593750,393.713104 
	C781.240906,395.066467 769.384094,390.909729 765.741821,380.622101 
	C762.186829,370.581207 762.573975,360.660950 764.346558,350.477997 
	C768.989075,349.979889 773.593872,349.756226 778.093689,348.948273 
	C788.370544,347.103088 798.901062,345.892365 808.735535,342.634186 
	C815.322449,340.451904 821.916077,336.160828 826.677246,331.094238 
	C833.881531,323.427826 836.184753,313.691803 834.174377,302.778198 
	C832.189026,292.000458 826.665527,284.786499 816.584351,281.044250 
	C804.950500,276.725739 792.917786,277.077545 780.955994,279.047028 
	C761.189697,282.301544 746.266235,292.968231 737.231201,310.721466 
	C728.565308,327.749420 725.524841,346.061798 727.946960,365.204987 
	C729.739990,379.375793 736.667603,389.922485 749.523560,396.076447 
	C762.197693,402.143372 775.633972,403.011139 789.481812,401.066315 
	C811.614258,397.957886 826.236938,385.807098 834.014954,365.121368 
	C835.968384,359.925934 834.548462,358.324005 828.685120,358.324554 
	C826.952576,361.901306 825.242676,365.431366 823.105103,369.572784 
M855.886230,377.240204 
	C854.524048,384.275024 853.161804,391.309814 851.677795,398.973663 
	C864.237183,398.973663 876.194580,399.053528 888.145996,398.822662 
	C889.106079,398.804138 890.622253,396.760864 890.870056,395.465302 
	C893.360229,382.446930 896.140869,369.453644 897.854797,356.324707 
	C900.181396,338.502045 905.220215,321.784943 914.811340,306.507477 
	C920.319824,297.733154 926.425110,289.677063 936.974121,286.527039 
	C947.093384,283.505402 956.131714,289.256836 956.982666,299.309082 
	C957.688049,307.641174 955.648499,315.326874 951.134827,322.328766 
	C946.694031,329.217438 941.847778,335.863281 937.730652,342.936584 
	C933.893188,349.529480 929.950928,356.311005 931.266357,364.682251 
	C933.960693,364.682251 936.362732,364.682251 938.528931,364.682251 
	C939.072449,362.419678 939.129761,360.286194 940.055115,358.640869 
	C945.495789,348.967133 950.787720,339.180115 956.808533,329.870209 
	C963.382263,319.705261 967.279236,308.992126 965.939087,296.838348 
	C965.083984,289.083282 962.035522,281.996002 953.981995,279.669067 
	C938.529297,275.204193 925.099304,277.851440 914.181213,291.622314 
	C911.423767,295.100281 909.193542,298.996277 907.373535,301.722809 
	C904.833557,296.579712 902.931091,290.921265 899.583313,286.312805 
	C891.854065,275.673157 866.971802,275.191467 857.438843,283.888885 
	C851.124512,289.649841 850.786560,289.279449 856.990723,293.122650 
	C861.873779,290.101685 866.438599,287.277557 871.003479,284.453430 
	C871.345276,284.837158 871.687012,285.220856 872.028809,285.604553 
	C869.518311,299.742432 866.999512,313.878815 864.499573,328.018555 
	C861.650391,344.134186 858.818115,360.252777 855.886230,377.240204 
M1650.894775,362.185791 
	C1651.594604,357.987793 1652.252930,353.782349 1653.001709,349.593109 
	C1655.849121,333.663208 1658.710938,317.735870 1661.597290,301.812988 
	C1663.009277,294.023682 1664.487427,286.246338 1665.952759,278.371124 
	C1648.063354,279.420105 1630.686890,280.438965 1613.001465,281.475952 
	C1613.090576,283.371918 1613.171265,285.086975 1613.269165,287.167847 
	C1617.693970,287.167847 1621.575806,287.167847 1625.701050,287.167847 
	C1622.457886,304.304535 1618.972290,320.957306 1616.236816,337.732391 
	C1614.022827,351.311188 1612.397705,365.008453 1611.139771,378.710815 
	C1610.558838,385.037994 1613.624634,390.729523 1618.432495,394.799957 
	C1631.277222,405.674622 1654.635010,404.533325 1664.717407,390.185730 
	C1663.199585,388.747223 1661.668457,387.296082 1660.031738,385.744843 
	C1655.526489,389.597137 1651.556885,393.821625 1644.800537,393.889526 
	C1646.785278,383.161346 1648.652344,373.068909 1650.894775,362.185791 
M1645.619873,210.792938 
	C1641.851196,213.301392 1636.994141,215.033005 1634.536133,218.476929 
	C1629.092651,226.103394 1627.598999,235.069611 1632.426514,243.623306 
	C1637.549438,252.700104 1645.583862,256.619537 1656.302979,255.094009 
	C1665.172241,253.831726 1671.065552,248.963943 1674.271118,241.098755 
	C1677.702637,232.679138 1675.854126,224.726364 1670.165405,217.667648 
	C1663.865479,209.850677 1655.354736,209.201874 1645.619873,210.792938 
z"/>
<path fill="#FCB040" opacity="1.000000" stroke="none" 
	d="
M1182.209229,324.736176 
	C1190.089478,331.265442 1198.155029,337.080872 1205.227905,343.922516 
	C1218.685547,356.940399 1225.439697,372.998718 1223.949585,391.936768 
	C1222.734741,407.374664 1217.310547,421.179260 1207.339478,433.238556 
	C1193.339111,450.170990 1174.715210,458.938019 1153.804688,462.766327 
	C1141.554932,465.009003 1128.842896,466.228424 1116.426392,465.729553 
	C1094.326538,464.841553 1073.420532,459.426575 1057.682129,442.132050 
	C1050.422729,434.154846 1046.366089,424.720917 1044.907227,413.927490 
	C1043.012329,399.909149 1046.070801,387.211578 1053.816162,375.604736 
	C1062.947021,361.921722 1075.885864,354.103027 1092.268921,353.186005 
	C1099.904419,352.758667 1107.983643,353.146118 1115.283569,355.209747 
	C1134.743652,360.711121 1143.637939,377.530884 1138.437256,397.091888 
	C1135.754272,407.183197 1130.662964,415.403564 1120.767456,420.102997 
	C1105.658325,427.278351 1083.429688,419.768890 1079.059814,400.515747 
	C1078.413452,397.667908 1078.156616,394.731628 1077.650391,391.377899 
	C1080.266357,391.377899 1082.322510,391.377899 1083.397461,391.377899 
	C1085.875366,396.846069 1087.571777,402.354980 1090.630005,406.959412 
	C1096.465698,415.745392 1110.712158,417.955139 1119.603027,412.113373 
	C1135.128418,401.912262 1137.524658,380.036652 1124.292114,367.865448 
	C1118.802368,362.815887 1112.015137,360.626434 1104.604248,359.960480 
	C1093.218140,358.937347 1082.284180,360.185974 1072.737061,366.883453 
	C1060.889771,375.194519 1053.786255,386.380066 1051.841553,401.116547 
	C1049.821655,416.421448 1054.914185,428.959900 1065.187988,439.535370 
	C1077.444946,452.152191 1092.777222,457.803223 1110.381470,458.076721 
	C1127.391602,458.340942 1144.069580,456.910492 1159.306641,448.796326 
	C1172.757080,441.633575 1181.462891,430.855835 1183.116211,414.928101 
	C1184.668701,399.971802 1180.468018,387.330048 1170.660767,376.049133 
	C1160.339722,364.177094 1146.779907,356.702087 1134.068359,348.081787 
	C1123.513794,340.924316 1112.951904,333.730011 1105.738037,323.024994 
	C1101.849365,317.254150 1098.902344,310.738556 1096.339478,304.239868 
	C1095.351562,301.734711 1094.410034,300.761414 1092.029297,299.850037 
	C1071.024414,291.808807 1058.703003,276.935211 1055.922974,254.238388 
	C1053.283081,232.685638 1057.948120,213.146057 1070.789673,195.658859 
	C1073.317993,192.215866 1076.112305,188.699646 1079.520630,186.236786 
	C1084.162964,182.882172 1084.433350,187.885818 1085.893921,190.058624 
	C1072.195923,201.939606 1065.560303,216.889847 1062.873657,234.204910 
	C1060.992432,246.329086 1062.184448,257.921478 1067.168579,268.889709 
	C1072.414307,280.433624 1081.369141,288.385834 1093.117065,292.567169 
	C1094.093750,282.823822 1094.643311,273.306885 1096.081177,263.926086 
	C1098.327637,249.268646 1105.126465,236.587158 1114.943848,225.631851 
	C1131.323364,207.353973 1152.178101,197.733795 1176.216553,193.864334 
	C1192.284790,191.277832 1207.978760,191.447327 1223.333008,197.019730 
	C1245.121094,204.927094 1256.878540,223.468277 1254.797119,245.703247 
	C1252.710083,267.998810 1237.449463,285.613861 1212.944580,288.252472 
	C1203.517822,289.267487 1195.118042,287.636139 1187.634399,284.954407 
	C1175.286255,290.810883 1163.501831,296.399963 1150.968872,302.344086 
	C1161.204590,309.660278 1171.575317,317.073029 1182.209229,324.736176 
M1240.048950,217.572968 
	C1234.635986,211.707932 1228.703979,206.720947 1221.008667,203.859055 
	C1207.370239,198.786865 1193.693237,198.146820 1179.398315,200.857819 
	C1148.538818,206.710266 1122.734009,236.227692 1128.022461,269.896545 
	C1129.624146,280.092773 1134.654663,288.405243 1142.583130,294.893921 
	C1143.571411,295.702759 1145.702271,295.788208 1147.045776,295.373322 
	C1152.669189,293.636627 1158.366821,291.962372 1163.709351,289.541534 
	C1169.685913,286.833496 1175.307861,283.342957 1181.230713,280.112946 
	C1179.003784,277.511078 1177.383667,275.840881 1176.016602,273.984222 
	C1167.967041,263.051178 1166.423828,250.325104 1168.263550,237.630951 
	C1170.714233,220.719299 1181.155762,211.993500 1199.088989,214.157135 
	C1206.325684,215.030258 1212.200317,218.848816 1214.091919,227.649536 
	C1216.293335,237.891708 1215.346558,247.834457 1210.396240,256.858765 
	C1205.949341,264.965302 1200.212891,272.364349 1195.097534,279.997559 
	C1206.979736,285.376373 1224.558228,281.206207 1234.529175,271.855438 
	C1248.245605,258.992279 1253.642822,237.462173 1240.048950,217.572968 
M1178.405518,229.143707 
	C1170.849243,244.116150 1176.112427,267.775238 1187.622437,275.389374 
	C1190.602783,272.240295 1194.003906,269.195465 1196.746216,265.642181 
	C1203.819214,256.477875 1208.561523,246.378159 1208.017822,234.390640 
	C1207.710938,227.626801 1204.327881,222.909225 1197.823120,220.921036 
	C1189.502808,218.377899 1183.703857,222.285904 1178.405518,229.143707 
z"/>
<path fill="#FCB040" opacity="1.000000" stroke="none" 
	d="
M188.938934,357.736145 
	C187.269714,366.012970 186.011993,373.952057 183.948608,381.675873 
	C176.386703,409.981873 158.557907,429.472412 131.818817,440.907654 
	C121.940544,445.132202 111.564178,447.394684 100.352844,446.921783 
	C100.352844,444.647095 100.352844,442.600494 100.352844,440.525055 
	C105.094078,439.754974 109.758911,439.032318 114.410797,438.234222 
	C123.285217,436.711731 128.856918,431.221619 130.992767,422.817139 
	C134.329575,409.686890 137.313019,396.449280 139.901169,383.151123 
	C142.589584,369.337830 144.636429,355.399506 146.934372,341.510986 
	C147.038071,340.884308 146.850922,340.209564 146.757050,339.024567 
	C141.958496,339.024567 137.204880,339.024567 132.240936,339.024567 
	C132.240936,336.881683 132.240936,335.276642 132.240936,333.000000 
	C135.876663,333.000000 139.498810,332.789032 143.085068,333.057465 
	C146.911331,333.343811 148.463730,332.203186 149.136383,328.068298 
	C153.577713,300.767303 158.346191,273.519165 163.080460,246.266342 
	C164.617249,237.419693 166.370773,228.610703 168.197800,218.863342 
	C161.906143,219.284515 155.981903,219.147736 150.265747,220.172073 
	C137.398209,222.477951 124.478081,224.775177 111.862617,228.138428 
	C91.200317,233.646957 71.783287,242.167755 56.281654,257.404266 
	C45.865639,267.642120 39.595181,280.123688 37.755699,295.055328 
	C36.619987,304.274261 37.474300,312.774506 41.497124,320.849152 
	C46.911846,331.717651 56.606361,337.780182 67.825264,340.821899 
	C77.406242,343.419495 87.388817,344.535858 97.685020,346.396210 
	C97.685020,347.644928 97.685020,349.907135 97.685020,352.981537 
	C92.450790,352.652191 87.055870,352.722443 81.800705,351.899872 
	C69.433075,349.964020 57.418694,346.889008 47.171810,339.062469 
	C36.616684,331.000488 30.791786,320.476135 29.988436,307.170258 
	C29.165672,293.542847 31.525427,280.647430 38.111675,268.551422 
	C45.086926,255.740936 55.365810,246.276642 67.620461,238.771103 
	C89.380669,225.443741 113.343880,218.531250 138.382874,215.032013 
	C150.251129,213.373413 162.175079,211.717209 174.126022,211.139008 
	C192.201706,210.264511 210.337463,209.765350 228.419159,210.226166 
	C238.324173,210.478592 248.128662,213.438324 258.052460,214.455582 
	C277.396576,216.438507 296.205475,215.375580 311.028748,200.395096 
	C322.805908,188.493011 325.440887,174.090469 319.715302,158.748230 
	C313.027954,140.828812 298.597412,132.565323 280.880585,132.119324 
	C276.965759,132.020767 273.013000,133.428391 269.492706,134.067154 
	C274.953552,142.575165 280.576477,150.429031 285.222168,158.823700 
	C290.052002,167.551102 291.502991,177.242050 288.846497,186.982407 
	C285.598572,198.891327 275.352051,202.720215 263.341278,200.570419 
	C248.692001,197.948364 242.996368,185.481049 242.098480,172.294098 
	C241.115906,157.863647 245.512192,145.038254 255.725525,134.474609 
	C251.783234,132.202225 247.959244,129.998032 243.826889,127.616089 
	C244.928055,125.781021 245.899246,124.162521 246.953262,122.406029 
	C247.473251,122.532082 247.986176,122.510368 248.290909,122.751625 
	C256.288818,129.083282 264.513550,128.011856 274.333160,126.534988 
	C303.398590,122.163574 328.751831,141.611420 329.129730,172.190628 
	C329.298920,185.880585 325.291138,197.559158 315.477783,206.864594 
	C306.936005,214.964233 296.300781,219.207138 284.700409,221.001724 
	C268.642914,223.485855 252.920303,221.403351 237.115585,218.308243 
	C229.564377,216.829468 221.617752,217.209396 213.848007,217.168381 
	C212.584305,217.161713 210.379364,219.210724 210.181381,220.543137 
	C207.939880,235.629150 206.228806,250.794846 203.929321,265.871124 
	C201.239426,283.506927 198.087158,301.071960 195.183090,318.675537 
	C194.438812,323.187134 193.873886,327.728271 193.148285,332.803284 
	C214.261215,332.803284 235.308319,332.803284 256.247772,332.803284 
	C257.345459,338.685944 257.136993,338.986267 251.736832,338.991882 
	C232.087555,339.012268 212.438232,338.999908 192.005234,338.999908 
	C190.986847,345.161591 189.983765,351.230560 188.938934,357.736145 
z"/>
<path fill="#FCB040" opacity="1.000000" stroke="none" 
	d="
M578.586914,393.953918 
	C588.852966,392.253815 596.085999,386.409149 602.255188,379.088074 
	C603.407227,377.720917 604.289185,375.198059 603.868408,373.579681 
	C600.322754,359.942230 601.651428,346.445709 604.531799,332.967865 
	C607.264954,320.179108 610.254639,307.443909 612.854797,294.628967 
	C613.459961,291.646454 612.944153,288.436462 612.944153,285.103363 
	C605.473572,286.666016 600.593811,292.144836 595.629944,298.067078 
	C593.656555,296.572052 591.879456,295.225739 590.141235,293.908875 
	C599.731323,277.272461 619.201782,275.159821 633.754089,280.109772 
	C641.592285,282.775909 647.627441,293.125427 648.062622,302.125000 
	C648.727295,315.870056 644.722412,328.778290 641.557556,341.847137 
	C638.814392,353.174500 635.609924,364.366699 635.933167,376.242920 
	C636.280029,388.988586 645.834290,396.299866 658.248047,393.432129 
	C674.450867,389.689117 684.857788,378.834808 693.038879,365.484406 
	C700.334351,353.579407 704.895203,340.612335 705.023621,326.388519 
	C705.050110,323.455933 705.297302,320.525360 705.479126,316.860077 
	C693.840393,325.683441 683.718689,325.492523 673.768188,318.912933 
	C666.905273,314.374939 663.519714,303.145050 666.058105,294.105255 
	C668.506592,285.385620 677.423645,278.289062 685.864929,277.968140 
	C701.896423,277.358612 709.219055,286.165894 711.831299,299.520660 
	C716.520630,323.494354 713.413635,346.733337 701.792603,368.315857 
	C692.104370,386.308929 677.651001,398.103912 656.581848,401.154694 
	C638.037048,403.839996 622.414001,399.314972 609.471985,385.022919 
	C602.377380,393.037018 593.652222,398.098022 583.244995,400.406128 
	C565.999878,404.230713 550.018188,401.836060 536.631775,389.886749 
	C528.526794,382.651917 524.588013,372.813965 524.015869,361.862122 
	C523.144714,345.187683 527.606079,329.311951 531.269348,313.291229 
	C533.370850,304.100433 534.774475,294.750031 536.556458,285.124481 
	C527.460999,286.314911 522.970215,292.367432 518.120117,297.863647 
	C511.485840,294.333496 511.022858,294.513092 516.753235,287.928284 
	C526.847717,276.328583 549.321594,274.113495 561.572815,283.378754 
	C567.189697,287.626648 569.509521,293.960114 570.044922,301.044495 
	C571.251648,317.011810 566.001587,331.851715 562.571411,347.046509 
	C560.592407,355.812805 559.092712,364.733459 558.103943,373.665100 
	C556.926208,384.303528 564.501953,395.557648 578.586914,393.953918 
z"/>
<path fill="#FCB040" opacity="1.000000" stroke="none" 
	d="
M1905.010498,357.205200 
	C1907.681396,342.610382 1910.526245,328.492004 1912.916016,314.297028 
	C1913.821167,308.920593 1914.186890,303.339569 1913.888672,297.901642 
	C1913.466797,290.209167 1906.477783,285.559113 1899.173828,288.665894 
	C1894.076294,290.834198 1888.756714,294.239258 1885.460449,298.559875 
	C1874.747314,312.603149 1869.046143,328.965179 1865.981812,346.299713 
	C1863.846558,358.378845 1861.367432,370.398102 1859.321533,382.491425 
	C1858.770020,385.751770 1859.238159,389.184601 1859.238159,392.729126 
	C1865.339600,393.950439 1868.046021,389.223267 1872.482056,385.897461 
	C1873.758789,387.095001 1876.556885,388.541168 1876.606323,390.075928 
	C1876.663208,391.840179 1874.616699,394.109344 1872.915283,395.422913 
	C1861.401123,404.312225 1843.393066,404.309998 1831.995483,395.384369 
	C1826.965332,391.445282 1823.850220,385.866669 1824.163696,379.589691 
	C1824.703735,368.775421 1825.844116,357.948273 1827.485229,347.241882 
	C1829.988892,330.907135 1833.131226,314.670197 1836.007324,298.392609 
	C1836.768555,294.084137 1837.548096,289.778900 1838.319214,285.472137 
	C1837.865356,285.093414 1837.411499,284.714691 1836.957520,284.335938 
	C1832.362793,287.276855 1827.767944,290.217773 1823.013428,293.260895 
	C1817.781006,288.910828 1817.795410,288.927612 1823.344849,284.159088 
	C1833.754761,275.213959 1854.094971,275.889740 1864.839478,284.475250 
	C1868.937866,287.750153 1871.231812,293.724762 1872.525146,303.361664 
	C1875.353882,299.304047 1877.893799,295.694183 1880.399292,292.060486 
	C1885.848877,284.156738 1893.864380,279.565002 1902.849365,278.413239 
	C1914.275391,276.948578 1925.857056,277.190582 1936.139648,284.436981 
	C1944.414429,290.268463 1948.127808,298.329102 1950.045654,307.816437 
	C1952.679321,320.843475 1949.184692,333.302094 1946.883911,345.856506 
	C1944.467407,359.042267 1941.536865,372.134460 1939.178711,385.329651 
	C1938.714355,387.927795 1939.832642,390.808716 1940.390259,394.758026 
	C1943.420410,392.981628 1946.223022,391.812531 1948.438721,389.946381 
	C1953.966797,385.290344 1953.859619,385.163147 1958.794312,390.495422 
	C1949.879395,401.473999 1937.947021,403.114899 1924.986694,401.487335 
	C1913.894043,400.094299 1905.838989,394.413727 1904.260010,383.050354 
	C1903.246460,375.755737 1904.635620,368.127655 1904.941162,360.648773 
	C1904.981934,359.650391 1904.983521,358.650421 1905.010498,357.205200 
z"/>
<path fill="#FCB040" opacity="1.000000" stroke="none" 
	d="
M1479.660645,390.829712 
	C1481.391235,388.987244 1482.849365,387.394531 1484.166870,385.955536 
	C1490.988159,388.761536 1491.477783,390.435883 1487.046631,394.449890 
	C1473.728149,406.514404 1447.704834,403.714844 1439.961426,389.381531 
	C1438.464233,386.610321 1437.450317,383.578094 1436.145752,380.506683 
	C1431.204712,387.805908 1425.548462,394.604370 1417.150146,398.387695 
	C1401.900635,405.257355 1387.525269,402.403137 1374.207520,393.560791 
	C1361.745483,385.286591 1357.803345,372.292145 1357.060425,358.196808 
	C1356.173462,341.370117 1358.325317,324.852509 1366.169556,309.782715 
	C1378.859131,285.404480 1400.736694,275.665375 1426.357910,278.222015 
	C1435.239136,279.108246 1442.745850,283.855499 1447.094360,292.340271 
	C1447.613403,293.353058 1448.292358,294.285095 1448.921143,295.238708 
	C1448.987061,295.338654 1449.216553,295.330627 1449.532593,295.417084 
	C1450.336304,291.853210 1451.701172,288.307007 1451.794800,284.727539 
	C1451.902100,280.620361 1454.498169,280.232635 1457.213623,280.066132 
	C1465.304321,279.570221 1473.414429,279.399353 1481.509888,278.968903 
	C1484.754028,278.796417 1487.979492,278.277771 1491.752686,277.856476 
	C1484.679199,316.694397 1477.698486,355.022400 1470.396240,395.115631 
	C1474.330933,393.349487 1476.859497,392.214478 1479.660645,390.829712 
M1417.873047,389.583008 
	C1427.859497,380.910858 1434.821655,370.138916 1438.041016,357.429016 
	C1440.721802,346.845520 1441.549072,335.795807 1444.170166,325.193054 
	C1446.405884,316.149292 1445.970947,307.793579 1442.008301,299.454559 
	C1435.026855,284.762756 1422.024048,281.487061 1411.965576,295.035217 
	C1406.552734,302.326080 1402.788696,311.347015 1400.274902,320.156403 
	C1397.108276,331.253021 1395.369507,342.867218 1394.164307,354.378448 
	C1393.211914,363.475677 1393.604248,372.777374 1394.137939,381.945251 
	C1394.522827,388.554260 1399.209229,393.670441 1405.247437,393.691040 
	C1409.236084,393.704651 1413.233154,391.275299 1417.873047,389.583008 
z"/>
<path fill="#FCB040" opacity="1.000000" stroke="none" 
	d="
M357.995972,308.061676 
	C356.754791,314.397095 355.531128,320.316193 354.220032,326.658142 
	C352.643799,326.658142 350.584991,326.658142 348.523254,326.658142 
	C348.323029,312.206207 353.243561,299.122345 358.407318,286.028748 
	C363.380829,273.417511 368.588898,260.823212 372.341858,247.830902 
	C375.171387,238.035294 375.362976,227.641342 372.018280,217.585342 
	C369.785614,210.872665 365.154327,206.635300 358.900726,204.018295 
	C348.364258,267.701508 337.877625,331.083649 327.302338,395.001587 
	C345.451721,389.302277 349.060089,372.539124 356.088379,358.531097 
	C362.540100,360.826538 362.487579,360.809143 360.332916,367.315247 
	C356.355286,379.325928 350.123291,389.761261 339.445831,397.011597 
	C328.462402,404.469696 310.660156,403.695557 300.672333,395.020996 
	C295.656281,390.664520 292.567017,384.660034 293.142609,377.990265 
	C294.156372,366.243256 295.809204,354.534729 297.631042,342.878326 
	C299.854706,328.650970 302.481598,314.485504 305.021454,300.308929 
	C307.416290,286.941559 309.774536,273.564545 312.432587,260.248444 
	C314.382721,250.478973 316.235626,240.631683 319.133270,231.124268 
	C322.935486,218.648727 327.546021,205.995651 340.989288,200.647018 
	C361.576843,192.455902 379.116821,200.789520 381.006042,224.925674 
	C382.506439,244.094315 376.277527,261.508881 369.109467,278.778595 
	C365.158997,288.296356 361.696198,298.016479 357.995972,308.061676 
z"/>
<path fill="#FCB040" opacity="1.000000" stroke="none" 
	d="
M379.001373,338.145447 
	C381.152222,325.353943 384.415955,313.512268 391.908478,303.070801 
	C401.037262,290.349121 413.586639,282.955475 428.507050,280.227600 
	C438.654144,278.372406 449.262970,277.576721 459.544769,278.223511 
	C482.302643,279.655090 499.672333,294.823547 500.058533,319.682892 
	C500.296631,335.010651 498.578827,349.882935 492.015228,363.910309 
	C482.786896,383.632568 467.216064,395.450775 446.117676,399.943024 
	C430.220581,403.327850 414.439728,403.454102 399.374969,396.086731 
	C385.168640,389.139160 379.058014,376.892212 378.141388,361.885345 
	C377.670074,354.168274 378.666870,346.361511 379.001373,338.145447 
M422.974976,392.941406 
	C429.174744,394.760498 438.711578,391.834167 442.444580,385.771423 
	C447.732666,377.183044 453.497955,368.492035 456.569580,359.036133 
	C460.374664,347.322266 462.578461,334.866333 463.687317,322.569855 
	C464.547791,313.028076 463.219269,303.157501 461.804230,293.589752 
	C460.912384,287.559509 456.215698,284.345642 450.294617,285.213745 
	C446.164154,285.819366 441.718048,287.674774 438.478455,290.291199 
	C430.055206,297.094177 425.487579,306.675537 422.002655,316.703888 
	C415.612457,335.092682 413.412109,354.098419 413.983429,373.493073 
	C414.204956,381.014252 415.914459,387.820831 422.974976,392.941406 
z"/>
<path fill="#FCB040" opacity="1.000000" stroke="none" 
	d="
M1682.009033,339.298096 
	C1684.352173,330.530060 1685.838867,321.852753 1689.195801,313.972229 
	C1697.098267,295.421448 1711.743896,284.415741 1731.272583,280.116974 
	C1744.922241,277.112305 1758.696899,276.695953 1772.444458,279.960114 
	C1790.593018,284.269226 1801.962646,298.306641 1803.089966,316.830231 
	C1804.040771,332.452667 1802.192749,347.440399 1796.112793,361.939758 
	C1787.448608,382.601715 1771.899292,395.020142 1750.389893,399.872284 
	C1735.766968,403.170959 1720.987427,403.449280 1706.658936,397.987640 
	C1692.160767,392.461395 1683.616455,381.364471 1682.144775,365.848755 
	C1681.326660,357.222595 1682.000854,348.454865 1682.009033,339.298096 
M1762.898193,350.212982 
	C1766.233398,333.938141 1768.287964,317.604309 1767.110474,300.889679 
	C1766.346558,290.049530 1760.575562,283.171753 1751.173706,285.327759 
	C1746.290894,286.447418 1741.205444,290.069183 1737.887451,293.981842 
	C1728.478516,305.077057 1723.498535,318.482605 1721.061523,332.728729 
	C1719.597656,341.285706 1718.990479,349.986450 1717.642944,358.566833 
	C1716.261230,367.364624 1716.430054,376.136139 1719.474365,384.384186 
	C1720.726074,387.775299 1724.235962,391.130463 1727.570435,392.782349 
	C1733.733521,395.835419 1739.016846,392.131714 1743.353882,388.030334 
	C1754.011719,377.951904 1758.780396,364.692413 1762.898193,350.212982 
z"/>
<path fill="#FCB040" opacity="1.000000" stroke="none" 
	d="
M1553.011963,340.117432 
	C1551.403687,350.583649 1549.752686,360.599182 1548.231812,370.634430 
	C1547.665771,374.368927 1547.166870,378.142334 1547.053223,381.910553 
	C1546.816895,389.744507 1554.418579,394.935608 1561.361572,390.967987 
	C1566.787720,387.867157 1572.479004,383.791687 1575.748779,378.676636 
	C1581.326050,369.951874 1585.095703,360.071533 1589.761963,350.392212 
	C1595.378296,351.371887 1595.528320,351.411804 1593.954956,357.326141 
	C1590.714844,369.505829 1586.035522,381.220795 1577.031128,390.197510 
	C1567.298462,399.900146 1554.948120,403.457031 1541.230591,401.610382 
	C1532.878418,400.485992 1525.588501,397.356873 1519.497437,391.162872 
	C1514.522827,386.104065 1511.827271,379.959503 1512.215576,373.436920 
	C1513.044189,359.521118 1514.718506,345.626831 1516.691284,331.815857 
	C1518.794067,317.093658 1521.641113,302.477753 1524.267334,287.210358 
	C1519.067993,287.210358 1514.330322,287.210358 1509.537231,287.210358 
	C1509.844849,284.916534 1510.079468,283.166718 1510.361084,281.065979 
	C1515.399536,281.065979 1520.353394,281.065979 1525.643066,281.065979 
	C1528.541748,265.701111 1531.384277,250.633728 1534.257690,235.402878 
	C1547.005737,234.384827 1559.733521,233.368393 1573.333984,232.282257 
	C1570.165405,248.507065 1567.050049,264.458527 1563.821533,280.989929 
	C1576.684692,280.989929 1589.107056,280.989929 1601.753906,280.989929 
	C1601.753906,283.109924 1601.753906,284.715118 1601.753906,287.000000 
	C1592.805420,287.000000 1583.867432,287.000000 1574.929565,287.000000 
	C1563.377441,287.000000 1563.186646,286.961975 1560.939575,298.236908 
	C1558.414551,310.906036 1556.288086,323.654480 1553.960083,336.363251 
	C1553.754395,337.486664 1553.338989,338.571716 1553.011963,340.117432 
z"/>
<path fill="#FCB040" opacity="1.000000" stroke="none" 
	d="
M1300.754150,401.998718 
	C1289.268799,402.214783 1278.950928,400.124786 1270.720093,392.155731 
	C1265.539673,387.139984 1263.171631,380.841888 1262.960815,373.575592 
	C1262.464722,356.483917 1265.821899,339.879303 1268.850952,323.208496 
	C1270.984985,311.464294 1272.788818,299.660095 1274.834717,287.311523 
	C1270.147583,287.311523 1265.455078,287.311523 1260.620728,287.311523 
	C1259.425659,283.052887 1259.938721,280.648804 1264.621948,280.985870 
	C1265.947998,281.081329 1267.286743,281.008240 1268.619751,280.998718 
	C1279.140137,280.923553 1275.831177,281.869965 1277.892212,272.404083 
	C1280.362183,261.059326 1281.990356,249.532837 1284.166138,238.119934 
	C1284.385864,236.967606 1285.791260,235.247864 1286.774902,235.155334 
	C1298.893311,234.015549 1311.035522,233.128738 1323.172974,232.191986 
	C1323.297607,232.182388 1323.438232,232.378616 1323.895874,232.722702 
	C1320.801880,248.465530 1317.672241,264.389954 1314.412598,280.975983 
	C1327.841797,280.975983 1340.262695,280.975983 1352.927368,280.975983 
	C1352.391968,283.220123 1351.983887,284.929779 1351.492188,286.990479 
	C1338.854980,286.990479 1326.239258,286.990479 1313.348999,286.990479 
	C1309.540771,307.704620 1305.568115,328.067200 1302.129028,348.519470 
	C1300.280151,359.514771 1298.956909,370.635010 1298.130493,381.753418 
	C1297.532837,389.793152 1303.338257,393.751526 1311.032593,391.481598 
	C1319.192139,389.074493 1324.489624,383.166229 1328.245483,376.132996 
	C1332.681885,367.825500 1336.202515,359.028992 1340.225708,350.213257 
	C1341.655273,350.760315 1343.601685,351.505157 1345.504517,352.233307 
	C1340.178467,377.925507 1327.608398,399.754852 1300.754150,401.998718 
z"/>
<path fill="#FCB040" opacity="1.000000" stroke="none" 
	d="
M823.318970,369.267090 
	C825.242676,365.431366 826.952576,361.901306 828.685120,358.324554 
	C834.548462,358.324005 835.968384,359.925934 834.014954,365.121368 
	C826.236938,385.807098 811.614258,397.957886 789.481812,401.066315 
	C775.633972,403.011139 762.197693,402.143372 749.523560,396.076447 
	C736.667603,389.922485 729.739990,379.375793 727.946960,365.204987 
	C725.524841,346.061798 728.565308,327.749420 737.231201,310.721466 
	C746.266235,292.968231 761.189697,282.301544 780.955994,279.047028 
	C792.917786,277.077545 804.950500,276.725739 816.584351,281.044250 
	C826.665527,284.786499 832.189026,292.000458 834.174377,302.778198 
	C836.184753,313.691803 833.881531,323.427826 826.677246,331.094238 
	C821.916077,336.160828 815.322449,340.451904 808.735535,342.634186 
	C798.901062,345.892365 788.370544,347.103088 778.093689,348.948273 
	C773.593872,349.756226 768.989075,349.979889 764.346558,350.477997 
	C762.573975,360.660950 762.186829,370.581207 765.741821,380.622101 
	C769.384094,390.909729 781.240906,395.066467 789.593750,393.713104 
	C804.803467,391.248810 815.584900,382.686523 823.318970,369.267090 
M771.994812,314.549530 
	C768.247559,323.219696 766.018860,332.240814 765.010193,342.352325 
	C769.671692,341.846100 773.596191,341.618561 777.447449,340.961975 
	C786.606262,339.400665 795.975037,338.435028 804.800659,335.732208 
	C813.856445,332.958954 821.761841,327.832489 824.714478,317.673523 
	C827.928162,306.616211 824.642151,295.777954 816.189453,290.020142 
	C808.691956,284.912994 796.406189,285.660522 787.663391,292.631836 
	C780.452087,298.382019 776.179688,305.925598 771.994812,314.549530 
z"/>
<path fill="#FCB040" opacity="1.000000" stroke="none" 
	d="
M855.932373,376.805145 
	C858.818115,360.252777 861.650391,344.134186 864.499573,328.018555 
	C866.999512,313.878815 869.518311,299.742432 872.028809,285.604553 
	C871.687012,285.220856 871.345276,284.837158 871.003479,284.453430 
	C866.438599,287.277557 861.873779,290.101685 856.990723,293.122650 
	C850.786560,289.279449 851.124512,289.649841 857.438843,283.888885 
	C866.971802,275.191467 891.854065,275.673157 899.583313,286.312805 
	C902.931091,290.921265 904.833557,296.579712 907.373535,301.722809 
	C909.193542,298.996277 911.423767,295.100281 914.181213,291.622314 
	C925.099304,277.851440 938.529297,275.204193 953.981995,279.669067 
	C962.035522,281.996002 965.083984,289.083282 965.939087,296.838348 
	C967.279236,308.992126 963.382263,319.705261 956.808533,329.870209 
	C950.787720,339.180115 945.495789,348.967133 940.055115,358.640869 
	C939.129761,360.286194 939.072449,362.419678 938.528931,364.682251 
	C936.362732,364.682251 933.960693,364.682251 931.266357,364.682251 
	C929.950928,356.311005 933.893188,349.529480 937.730652,342.936584 
	C941.847778,335.863281 946.694031,329.217438 951.134827,322.328766 
	C955.648499,315.326874 957.688049,307.641174 956.982666,299.309082 
	C956.131714,289.256836 947.093384,283.505402 936.974121,286.527039 
	C926.425110,289.677063 920.319824,297.733154 914.811340,306.507477 
	C905.220215,321.784943 900.181396,338.502045 897.854797,356.324707 
	C896.140869,369.453644 893.360229,382.446930 890.870056,395.465302 
	C890.622253,396.760864 889.106079,398.804138 888.145996,398.822662 
	C876.194580,399.053528 864.237183,398.973663 851.677795,398.973663 
	C853.161804,391.309814 854.524048,384.275024 855.932373,376.805145 
z"/>
<path fill="#FCB040" opacity="1.000000" stroke="none" 
	d="
M1650.707153,362.581116 
	C1648.652344,373.068909 1646.785278,383.161346 1644.800537,393.889526 
	C1651.556885,393.821625 1655.526489,389.597137 1660.031738,385.744843 
	C1661.668457,387.296082 1663.199585,388.747223 1664.717407,390.185730 
	C1654.635010,404.533325 1631.277222,405.674622 1618.432495,394.799957 
	C1613.624634,390.729523 1610.558838,385.037994 1611.139771,378.710815 
	C1612.397705,365.008453 1614.022827,351.311188 1616.236816,337.732391 
	C1618.972290,320.957306 1622.457886,304.304535 1625.701050,287.167847 
	C1621.575806,287.167847 1617.693970,287.167847 1613.269165,287.167847 
	C1613.171265,285.086975 1613.090576,283.371918 1613.001465,281.475952 
	C1630.686890,280.438965 1648.063354,279.420105 1665.952759,278.371124 
	C1664.487427,286.246338 1663.009277,294.023682 1661.597290,301.812988 
	C1658.710938,317.735870 1655.849121,333.663208 1653.001709,349.593109 
	C1652.252930,353.782349 1651.594604,357.987793 1650.707153,362.581116 
z"/>
<path fill="#FCB040" opacity="1.000000" stroke="none" 
	d="
M1645.962158,210.540802 
	C1655.354736,209.201874 1663.865479,209.850677 1670.165405,217.667648 
	C1675.854126,224.726364 1677.702637,232.679138 1674.271118,241.098755 
	C1671.065552,248.963943 1665.172241,253.831726 1656.302979,255.094009 
	C1645.583862,256.619537 1637.549438,252.700104 1632.426514,243.623306 
	C1627.598999,235.069611 1629.092651,226.103394 1634.536133,218.476929 
	C1636.994141,215.033005 1641.851196,213.301392 1645.962158,210.540802 
z"/>
<path fill="#FFFFFF" opacity="1.000000" stroke="none" 
	d="
M1240.301880,217.833984 
	C1253.642822,237.462173 1248.245605,258.992279 1234.529175,271.855438 
	C1224.558228,281.206207 1206.979736,285.376373 1195.097534,279.997559 
	C1200.212891,272.364349 1205.949341,264.965302 1210.396240,256.858765 
	C1215.346558,247.834457 1216.293335,237.891708 1214.091919,227.649536 
	C1212.200317,218.848816 1206.325684,215.030258 1199.088989,214.157135 
	C1181.155762,211.993500 1170.714233,220.719299 1168.263550,237.630951 
	C1166.423828,250.325104 1167.967041,263.051178 1176.016602,273.984222 
	C1177.383667,275.840881 1179.003784,277.511078 1181.230713,280.112946 
	C1175.307861,283.342957 1169.685913,286.833496 1163.709351,289.541534 
	C1158.366821,291.962372 1152.669189,293.636627 1147.045776,295.373322 
	C1145.702271,295.788208 1143.571411,295.702759 1142.583130,294.893921 
	C1134.654663,288.405243 1129.624146,280.092773 1128.022461,269.896545 
	C1122.734009,236.227692 1148.538818,206.710266 1179.398315,200.857819 
	C1193.693237,198.146820 1207.370239,198.786865 1221.008667,203.859055 
	C1228.703979,206.720947 1234.635986,211.707932 1240.301880,217.833984 
z"/>
<path fill="#FFFFFF" opacity="1.000000" stroke="none" 
	d="
M1178.668213,228.871490 
	C1183.703857,222.285904 1189.502808,218.377899 1197.823120,220.921036 
	C1204.327881,222.909225 1207.710938,227.626801 1208.017822,234.390640 
	C1208.561523,246.378159 1203.819214,256.477875 1196.746216,265.642181 
	C1194.003906,269.195465 1190.602783,272.240295 1187.622437,275.389374 
	C1176.112427,267.775238 1170.849243,244.116150 1178.668213,228.871490 
z"/>
<path fill="#FFFFFF" opacity="1.000000" stroke="none" 
	d="
M1417.549805,389.761353 
	C1413.233154,391.275299 1409.236084,393.704651 1405.247437,393.691040 
	C1399.209229,393.670441 1394.522827,388.554260 1394.137939,381.945251 
	C1393.604248,372.777374 1393.211914,363.475677 1394.164307,354.378448 
	C1395.369507,342.867218 1397.108276,331.253021 1400.274902,320.156403 
	C1402.788696,311.347015 1406.552734,302.326080 1411.965576,295.035217 
	C1422.024048,281.487061 1435.026855,284.762756 1442.008301,299.454559 
	C1445.970947,307.793579 1446.405884,316.149292 1444.170166,325.193054 
	C1441.549072,335.795807 1440.721802,346.845520 1438.041016,357.429016 
	C1434.821655,370.138916 1427.859497,380.910858 1417.549805,389.761353 
z"/>
<path fill="#FFFFFF" opacity="1.000000" stroke="none" 
	d="
M422.611877,392.806885 
	C415.914459,387.820831 414.204956,381.014252 413.983429,373.493073 
	C413.412109,354.098419 415.612457,335.092682 422.002655,316.703888 
	C425.487579,306.675537 430.055206,297.094177 438.478455,290.291199 
	C441.718048,287.674774 446.164154,285.819366 450.294617,285.213745 
	C456.215698,284.345642 460.912384,287.559509 461.804230,293.589752 
	C463.219269,303.157501 464.547791,313.028076 463.687317,322.569855 
	C462.578461,334.866333 460.374664,347.322266 456.569580,359.036133 
	C453.497955,368.492035 447.732666,377.183044 442.444580,385.771423 
	C438.711578,391.834167 429.174744,394.760498 422.611877,392.806885 
z"/>
<path fill="#FFFFFF" opacity="1.000000" stroke="none" 
	d="
M1762.711914,350.589172 
	C1758.780396,364.692413 1754.011719,377.951904 1743.353882,388.030334 
	C1739.016846,392.131714 1733.733521,395.835419 1727.570435,392.782349 
	C1724.235962,391.130463 1720.726074,387.775299 1719.474365,384.384186 
	C1716.430054,376.136139 1716.261230,367.364624 1717.642944,358.566833 
	C1718.990479,349.986450 1719.597656,341.285706 1721.061523,332.728729 
	C1723.498535,318.482605 1728.478516,305.077057 1737.887451,293.981842 
	C1741.205444,290.069183 1746.290894,286.447418 1751.173706,285.327759 
	C1760.575562,283.171753 1766.346558,290.049530 1767.110474,300.889679 
	C1768.287964,317.604309 1766.233398,333.938141 1762.711914,350.589172 
z"/>
<path fill="#FFFFFF" opacity="1.000000" stroke="none" 
	d="
M772.042236,314.164673 
	C776.179688,305.925598 780.452087,298.382019 787.663391,292.631836 
	C796.406189,285.660522 808.691956,284.912994 816.189453,290.020142 
	C824.642151,295.777954 827.928162,306.616211 824.714478,317.673523 
	C821.761841,327.832489 813.856445,332.958954 804.800659,335.732208 
	C795.975037,338.435028 786.606262,339.400665 777.447449,340.961975 
	C773.596191,341.618561 769.671692,341.846100 765.010193,342.352325 
	C766.018860,332.240814 768.247559,323.219696 772.042236,314.164673 
z"/>
</svg>